<?xml version="1.0" standalone="no"?>
<!DOCTYPE svg PUBLIC "-//W3C//DTD SVG 20010904//EN"
 "http://www.w3.org/TR/2001/REC-SVG-20010904/DTD/svg10.dtd">
<svg version="1.0" xmlns="http://www.w3.org/2000/svg"
 width="192.000000pt" height="192.000000pt" viewBox="0 0 192.000000 192.000000"
 preserveAspectRatio="xMidYMid meet">
<metadata>
Created by potrace 1.11, written by Peter Selinger 2001-2013
</metadata>
<g transform="translate(0.000000,192.000000) scale(0.100000,-0.100000)"
fill="#000000" stroke="none">
<path d="M399 1478 c0 -41 0 -1025 1 -1060 0 -13 8 -18 31 -18 20 0 28 -4 23
-12 -5 -7 -3 -8 7 -2 21 13 142 13 158 0 10 -8 13 -8 8 0 -4 7 8 11 34 12 22
1 38 -2 34 -7 -3 -5 -1 -13 5 -16 6 -4 9 -1 8 6 -4 17 131 21 151 5 11 -8 13
-8 8 0 -9 16 93 16 112 0 11 -8 13 -8 8 0 -9 15 53 16 72 1 9 -7 12 -8 8 -1
-9 15 53 16 72 1 9 -7 12 -8 8 -1 -9 15 53 16 72 1 9 -7 12 -8 8 -1 -9 15 53
16 72 1 9 -7 12 -8 8 -1 -9 15 53 16 72 1 9 -7 12 -8 8 -1 -9 15 53 16 72 1
12 -9 13 -9 7 1 -5 8 2 12 23 12 23 0 31 5 32 18 0 9 1 168 0 352 0 244 3 338
12 349 9 11 9 13 0 8 -9 -6 -12 33 -11 155 0 90 -1 180 -1 201 l-1 37 -560 0
-560 0 -1 -42z"/>
</g>
</svg>
